<svg xmlns="http://www.w3.org/2000/svg" xmlns:xlink="http://www.w3.org/1999/xlink" width="500" zoomAndPan="magnify" viewBox="0 0 375 374.999991" height="500" preserveAspectRatio="xMidYMid meet" version="1.0"><defs><g/><clipPath id="35dd76f0b1"><path d="M 132 121 L 156 121 L 156 227.433594 L 132 227.433594 Z M 132 121 " clip-rule="nonzero"/></clipPath><clipPath id="8bea4f9eec"><path d="M 160 143 L 184 143 L 184 227.433594 L 160 227.433594 Z M 160 143 " clip-rule="nonzero"/></clipPath><clipPath id="df72424198"><path d="M 105.375 146 L 129 146 L 129 227.433594 L 105.375 227.433594 Z M 105.375 146 " clip-rule="nonzero"/></clipPath><clipPath id="d5325e6b0f"><path d="M 187 172 L 211 172 L 211 227.433594 L 187 227.433594 Z M 187 172 " clip-rule="nonzero"/></clipPath><clipPath id="f28b05de05"><path d="M 215 158 L 239 158 L 239 227.433594 L 215 227.433594 Z M 215 158 " clip-rule="nonzero"/></clipPath><clipPath id="c62f5616c7"><path d="M 114 92.640625 L 269.929688 92.640625 L 269.929688 215 L 114 215 Z M 114 92.640625 " clip-rule="nonzero"/></clipPath></defs><g clip-path="url(#35dd76f0b1)"><path fill="#1c3d86" d="M 136.144531 124.402344 C 136.078125 124.402344 136.019531 124.464844 136.019531 124.527344 L 136.019531 224.210938 C 136.019531 224.277344 136.078125 224.335938 136.144531 224.335938 L 152.480469 224.335938 C 152.546875 224.335938 152.605469 224.277344 152.605469 224.210938 L 152.605469 124.527344 C 152.605469 124.464844 152.546875 124.402344 152.480469 124.402344 Z M 152.480469 227.433594 L 136.144531 227.433594 C 134.363281 227.433594 132.910156 225.988281 132.910156 224.210938 L 132.910156 124.527344 C 132.910156 122.75 134.363281 121.304688 136.144531 121.304688 L 152.480469 121.304688 C 154.261719 121.304688 155.714844 122.75 155.714844 124.527344 L 155.714844 224.210938 C 155.714844 225.988281 154.261719 227.433594 152.480469 227.433594 " fill-opacity="1" fill-rule="nonzero"/></g><g clip-path="url(#8bea4f9eec)"><path fill="#1c3d86" d="M 163.507812 224.335938 L 180.089844 224.335938 L 180.089844 147.070312 L 163.507812 147.070312 Z M 180.296875 227.433594 L 163.296875 227.433594 C 161.699219 227.433594 160.398438 226.136719 160.398438 224.542969 L 160.398438 146.859375 C 160.398438 145.269531 161.699219 143.972656 163.296875 143.972656 L 180.296875 143.972656 C 181.894531 143.972656 183.195312 145.269531 183.195312 146.859375 L 183.195312 224.542969 C 183.195312 226.136719 181.894531 227.433594 180.296875 227.433594 " fill-opacity="1" fill-rule="nonzero"/></g><g clip-path="url(#df72424198)"><path fill="#1c3d86" d="M 108.53125 224.335938 L 125.117188 224.335938 L 125.117188 150 L 108.53125 150 Z M 125.324219 227.433594 L 108.324219 227.433594 C 106.722656 227.433594 105.425781 226.136719 105.425781 224.542969 L 105.425781 149.792969 C 105.425781 148.203125 106.722656 146.90625 108.324219 146.90625 L 125.324219 146.90625 C 126.921875 146.90625 128.222656 148.203125 128.222656 149.792969 L 128.222656 224.542969 C 128.222656 226.136719 126.921875 227.433594 125.324219 227.433594 " fill-opacity="1" fill-rule="nonzero"/></g><g clip-path="url(#d5325e6b0f)"><path fill="#1c3d86" d="M 190.980469 224.335938 L 207.566406 224.335938 L 207.566406 175.320312 L 190.980469 175.320312 Z M 207.925781 227.433594 L 190.621094 227.433594 C 189.101562 227.433594 187.871094 226.203125 187.871094 224.695312 L 187.871094 174.960938 C 187.871094 173.453125 189.101562 172.222656 190.621094 172.222656 L 207.925781 172.222656 C 209.445312 172.222656 210.675781 173.453125 210.675781 174.960938 L 210.675781 224.695312 C 210.675781 226.203125 209.445312 227.433594 207.925781 227.433594 " fill-opacity="1" fill-rule="nonzero"/></g><g clip-path="url(#f28b05de05)"><path fill="#1c3d86" d="M 235.273438 227.433594 L 218.277344 227.433594 C 216.675781 227.433594 215.378906 226.136719 215.378906 224.542969 L 215.378906 159.945312 C 215.378906 159.089844 216.070312 158.394531 216.929688 158.394531 C 217.789062 158.394531 218.484375 159.089844 218.484375 159.945312 L 218.484375 224.335938 L 235.066406 224.335938 L 235.066406 172.429688 C 235.066406 171.578125 235.761719 170.882812 236.617188 170.882812 C 237.476562 170.882812 238.171875 171.578125 238.171875 172.429688 L 238.171875 224.542969 C 238.171875 226.136719 236.875 227.433594 235.273438 227.433594 " fill-opacity="1" fill-rule="nonzero"/></g><path fill="#22a1e2" d="M 226.628906 152.921875 C 220.410156 152.921875 214.816406 149.484375 212.03125 143.953125 C 207.996094 135.933594 211.253906 126.136719 219.296875 122.113281 C 221.589844 120.964844 224.050781 120.382812 226.601562 120.382812 C 232.820312 120.382812 238.417969 123.820312 241.203125 129.355469 C 245.238281 137.371094 241.976562 147.164062 233.9375 151.191406 C 231.640625 152.339844 229.179688 152.921875 226.628906 152.921875 Z M 243.980469 127.964844 C 240.660156 121.375 234 117.285156 226.601562 117.285156 C 223.5625 117.285156 220.636719 117.976562 217.902344 119.34375 C 208.328125 124.132812 204.449219 135.796875 209.253906 145.339844 C 212.570312 151.929688 219.230469 156.019531 226.628906 156.019531 C 229.667969 156.019531 232.597656 155.324219 235.332031 153.957031 C 244.902344 149.167969 248.78125 137.507812 243.980469 127.964844 " fill-opacity="1" fill-rule="nonzero"/><g clip-path="url(#c62f5616c7)"><path fill="#22a1e2" d="M 264.941406 209.246094 L 261.902344 210.765625 C 261.628906 210.90625 261.335938 210.972656 261.03125 210.972656 C 260.285156 210.972656 259.589844 210.550781 259.261719 209.894531 L 241.742188 175.113281 C 241.257812 174.140625 241.652344 172.960938 242.621094 172.476562 L 245.660156 170.953125 C 245.933594 170.820312 246.226562 170.75 246.53125 170.75 C 247.277344 170.75 247.976562 171.171875 248.304688 171.828125 L 265.820312 206.613281 C 266.308594 207.578125 265.914062 208.761719 264.941406 209.246094 Z M 236.792969 169.492188 L 236.667969 169.242188 C 236.179688 168.277344 236.574219 167.09375 237.542969 166.609375 L 243.976562 163.390625 C 244.25 163.253906 244.542969 163.183594 244.847656 163.183594 C 245.59375 163.183594 246.289062 163.609375 246.621094 164.265625 L 246.746094 164.511719 C 246.980469 164.976562 247.019531 165.511719 246.851562 166.011719 C 246.6875 166.511719 246.335938 166.914062 245.871094 167.148438 L 239.4375 170.367188 C 239.164062 170.503906 238.867188 170.570312 238.5625 170.570312 C 237.820312 170.570312 237.125 170.148438 236.792969 169.492188 Z M 238.558594 160.375 C 238.605469 160.351562 238.652344 160.324219 238.695312 160.304688 L 239.765625 159.765625 L 240.578125 161.378906 L 237.957031 162.691406 L 237.144531 161.078125 L 238.445312 160.429688 C 238.484375 160.410156 238.523438 160.394531 238.558594 160.375 Z M 205.597656 147.167969 C 199.78125 135.613281 204.476562 121.496094 216.0625 115.695312 C 219.375 114.042969 222.917969 113.199219 226.59375 113.199219 C 235.554688 113.199219 243.621094 118.15625 247.636719 126.136719 C 250.457031 131.730469 250.917969 138.085938 248.941406 144.03125 C 246.984375 149.917969 242.863281 154.695312 237.335938 157.519531 L 237.023438 157.671875 C 233.757812 159.28125 230.261719 160.101562 226.636719 160.101562 C 217.675781 160.101562 209.613281 155.144531 205.597656 147.167969 Z M 268.59375 205.222656 L 251.082031 170.4375 C 250.628906 169.542969 249.9375 168.828125 249.109375 168.347656 C 249.402344 167.9375 249.636719 167.476562 249.800781 166.984375 C 250.230469 165.699219 250.128906 164.328125 249.523438 163.125 L 249.398438 162.875 C 248.53125 161.15625 246.789062 160.085938 244.847656 160.085938 C 244.394531 160.085938 243.941406 160.15625 243.5 160.277344 L 242.375 158.046875 C 246.808594 154.8125 250.125 150.308594 251.890625 145.007812 C 254.128906 138.277344 253.605469 131.082031 250.410156 124.746094 C 245.863281 115.714844 236.738281 110.101562 226.59375 110.101562 C 222.429688 110.101562 218.417969 111.054688 214.671875 112.929688 C 201.550781 119.492188 196.234375 135.476562 202.820312 148.558594 C 203.148438 149.214844 203.511719 149.847656 203.890625 150.46875 L 198.550781 159.914062 L 187.769531 133.691406 C 187.53125 133.109375 186.964844 132.730469 186.332031 132.730469 L 173.382812 132.730469 L 145.625 93.300781 C 145.355469 92.917969 144.925781 92.675781 144.457031 92.644531 C 143.980469 92.613281 143.53125 92.800781 143.210938 93.140625 L 114.636719 124.085938 C 114.054688 124.714844 114.097656 125.695312 114.726562 126.273438 C 115.359375 126.851562 116.339844 126.8125 116.925781 126.183594 L 144.191406 96.652344 L 171.304688 135.167969 C 171.59375 135.582031 172.070312 135.828125 172.578125 135.828125 L 185.289062 135.828125 L 196.886719 164.046875 C 197.117188 164.601562 197.636719 164.96875 198.230469 165.007812 C 198.261719 165.011719 198.292969 165.011719 198.328125 165.011719 C 198.882812 165.011719 199.402344 164.710938 199.679688 164.222656 L 205.859375 153.292969 C 210.847656 159.507812 218.410156 163.199219 226.636719 163.199219 C 229.222656 163.199219 231.746094 162.832031 234.183594 162.105469 L 235.320312 164.367188 C 233.441406 165.816406 232.785156 168.4375 233.890625 170.632812 L 234.015625 170.882812 C 234.867188 172.574219 236.566406 173.625 238.464844 173.664062 C 238.355469 174.605469 238.507812 175.589844 238.964844 176.5 L 256.484375 211.28125 C 257.351562 213.003906 259.089844 214.070312 261.03125 214.070312 C 261.8125 214.070312 262.597656 213.886719 263.296875 213.539062 L 266.335938 212.015625 C 268.835938 210.761719 269.851562 207.714844 268.59375 205.222656 " fill-opacity="1" fill-rule="nonzero"/></g><g fill="#1c3d86" fill-opacity="1"><g transform="translate(32.849031, 274.715216)"><g><path d="M 2.484375 0 L 2.484375 -20.65625 L 15.4375 -20.65625 L 15.4375 -16.40625 L 7.171875 -16.40625 L 7.171875 -11.25 L 14.671875 -11.25 L 14.671875 -7.109375 L 7.171875 -7.109375 L 7.171875 0 Z M 2.484375 0 "/></g></g></g><g fill="#1c3d86" fill-opacity="1"><g transform="translate(49.580302, 274.715216)"><g><path d="M 11.953125 0.40625 C 9.867188 0.40625 8.019531 -0.046875 6.40625 -0.953125 C 4.789062 -1.867188 3.53125 -3.132812 2.625 -4.75 C 1.71875 -6.363281 1.265625 -8.222656 1.265625 -10.328125 C 1.265625 -12.429688 1.71875 -14.289062 2.625 -15.90625 C 3.53125 -17.519531 4.785156 -18.785156 6.390625 -19.703125 C 7.992188 -20.617188 9.835938 -21.078125 11.921875 -21.078125 C 13.671875 -21.078125 15.273438 -20.738281 16.734375 -20.0625 C 18.191406 -19.394531 19.414062 -18.453125 20.40625 -17.234375 C 21.40625 -16.015625 22.097656 -14.578125 22.484375 -12.921875 L 17.65625 -12.921875 C 17.257812 -14.066406 16.554688 -14.96875 15.546875 -15.625 C 14.546875 -16.289062 13.390625 -16.625 12.078125 -16.625 C 10.910156 -16.625 9.867188 -16.359375 8.953125 -15.828125 C 8.035156 -15.296875 7.320312 -14.554688 6.8125 -13.609375 C 6.300781 -12.660156 6.046875 -11.566406 6.046875 -10.328125 C 6.046875 -9.085938 6.300781 -7.992188 6.8125 -7.046875 C 7.320312 -6.109375 8.03125 -5.375 8.9375 -4.84375 C 9.84375 -4.3125 10.878906 -4.046875 12.046875 -4.046875 C 13.398438 -4.046875 14.585938 -4.394531 15.609375 -5.09375 C 16.640625 -5.789062 17.367188 -6.726562 17.796875 -7.90625 L 22.640625 -7.90625 C 22.304688 -6.238281 21.632812 -4.78125 20.625 -3.53125 C 19.625 -2.28125 18.378906 -1.3125 16.890625 -0.625 C 15.410156 0.0625 13.765625 0.40625 11.953125 0.40625 Z M 11.953125 0.40625 "/></g></g></g><g fill="#1c3d86" fill-opacity="1"><g transform="translate(73.393594, 274.715216)"><g><path d="M 12.28125 0.40625 C 10.132812 0.40625 8.226562 -0.046875 6.5625 -0.953125 C 4.90625 -1.867188 3.609375 -3.132812 2.671875 -4.75 C 1.734375 -6.363281 1.265625 -8.222656 1.265625 -10.328125 C 1.265625 -12.429688 1.734375 -14.289062 2.671875 -15.90625 C 3.609375 -17.519531 4.90625 -18.785156 6.5625 -19.703125 C 8.226562 -20.617188 10.132812 -21.078125 12.28125 -21.078125 C 14.445312 -21.078125 16.351562 -20.617188 18 -19.703125 C 19.65625 -18.785156 20.953125 -17.519531 21.890625 -15.90625 C 22.835938 -14.289062 23.3125 -12.429688 23.3125 -10.328125 C 23.3125 -8.222656 22.835938 -6.363281 21.890625 -4.75 C 20.953125 -3.132812 19.65625 -1.867188 18 -0.953125 C 16.351562 -0.046875 14.445312 0.40625 12.28125 0.40625 Z M 6.046875 -10.328125 C 6.046875 -9.085938 6.3125 -7.992188 6.84375 -7.046875 C 7.375 -6.109375 8.109375 -5.375 9.046875 -4.84375 C 9.984375 -4.3125 11.0625 -4.046875 12.28125 -4.046875 C 13.519531 -4.046875 14.601562 -4.3125 15.53125 -4.84375 C 16.46875 -5.375 17.195312 -6.109375 17.71875 -7.046875 C 18.238281 -7.992188 18.5 -9.085938 18.5 -10.328125 C 18.5 -11.566406 18.238281 -12.660156 17.71875 -13.609375 C 17.195312 -14.554688 16.46875 -15.296875 15.53125 -15.828125 C 14.601562 -16.359375 13.519531 -16.625 12.28125 -16.625 C 11.0625 -16.625 9.984375 -16.359375 9.046875 -15.828125 C 8.109375 -15.296875 7.375 -14.554688 6.84375 -13.609375 C 6.3125 -12.660156 6.046875 -11.566406 6.046875 -10.328125 Z M 6.046875 -10.328125 "/></g></g></g><g fill="#1c3d86" fill-opacity="1"><g transform="translate(97.974112, 274.715216)"><g><path d="M 2.484375 0 L 2.484375 -20.65625 L 6.46875 -20.65625 L 13.8125 -9.953125 L 21.140625 -20.65625 L 25.09375 -20.65625 L 25.09375 0 L 20.421875 0 L 20.421875 -12.421875 L 15.40625 -5.109375 L 12.15625 -5.109375 L 7.140625 -12.453125 L 7.140625 0 Z M 2.484375 0 "/></g></g></g><g fill="#1c3d86" fill-opacity="1"><g transform="translate(125.534976, 274.715216)"><g><path d="M 2.484375 0 L 2.484375 -20.65625 L 10.5625 -20.65625 C 12.238281 -20.65625 13.6875 -20.347656 14.90625 -19.734375 C 16.125 -19.128906 17.070312 -18.265625 17.75 -17.140625 C 18.425781 -16.023438 18.765625 -14.707031 18.765625 -13.1875 C 18.765625 -11.695312 18.425781 -10.390625 17.75 -9.265625 C 17.070312 -8.140625 16.125 -7.269531 14.90625 -6.65625 C 13.6875 -6.050781 12.238281 -5.75 10.5625 -5.75 L 7.171875 -5.75 L 7.171875 0 Z M 7.140625 -9.796875 L 10.1875 -9.796875 C 11.40625 -9.796875 12.34375 -10.085938 13 -10.671875 C 13.65625 -11.253906 13.984375 -12.082031 13.984375 -13.15625 C 13.984375 -14.238281 13.65625 -15.078125 13 -15.671875 C 12.34375 -16.265625 11.40625 -16.5625 10.1875 -16.5625 L 7.140625 -16.5625 Z M 7.140625 -9.796875 "/></g></g></g><g fill="#1c3d86" fill-opacity="1"><g transform="translate(145.158085, 274.715216)"><g><path d="M 0.265625 0 L 8.46875 -20.65625 L 13.078125 -20.65625 L 21.28125 0 L 16.265625 0 L 14.875 -3.578125 L 6.671875 -3.578125 L 5.28125 0 Z M 7.875 -7.265625 L 13.6875 -7.265625 L 10.765625 -14.8125 Z M 7.875 -7.265625 "/></g></g></g><g fill="#1c3d86" fill-opacity="1"><g transform="translate(166.699241, 274.715216)"><g><path d="M 2.484375 0 L 2.484375 -20.65625 L 6.46875 -20.65625 L 15.578125 -8.09375 L 15.578125 -20.65625 L 20.25 -20.65625 L 20.25 0 L 16.265625 0 L 7.140625 -12.65625 L 7.140625 0 Z M 2.484375 0 "/></g></g></g><g fill="#1c3d86" fill-opacity="1"><g transform="translate(189.420727, 274.715216)"><g><path d="M 7.875 0 L 7.875 -7.234375 L 0.265625 -20.65625 L 5.609375 -20.65625 L 8.171875 -15.875 L 10.234375 -12.125 L 12.28125 -15.875 L 14.8125 -20.65625 L 20.15625 -20.65625 L 12.578125 -7.296875 L 12.578125 0 Z M 7.875 0 "/></g></g></g><g fill="#1c3d86" fill-opacity="1"><g transform="translate(209.840554, 274.715216)"><g/></g></g><g fill="#1c3d86" fill-opacity="1"><g transform="translate(216.775038, 274.715216)"><g><path d="M 9.6875 0.40625 C 7.945312 0.40625 6.453125 0.125 5.203125 -0.4375 C 3.953125 -1.007812 2.988281 -1.820312 2.3125 -2.875 C 1.632812 -3.925781 1.296875 -5.160156 1.296875 -6.578125 L 5.90625 -6.578125 C 5.90625 -5.597656 6.242188 -4.832031 6.921875 -4.28125 C 7.597656 -3.726562 8.507812 -3.453125 9.65625 -3.453125 C 10.632812 -3.453125 11.410156 -3.644531 11.984375 -4.03125 C 12.554688 -4.414062 12.84375 -4.953125 12.84375 -5.640625 C 12.84375 -6.367188 12.492188 -6.957031 11.796875 -7.40625 C 11.109375 -7.863281 10.039062 -8.25 8.59375 -8.5625 C 6.164062 -9.070312 4.367188 -9.847656 3.203125 -10.890625 C 2.046875 -11.929688 1.46875 -13.289062 1.46875 -14.96875 C 1.46875 -16.851562 2.15625 -18.34375 3.53125 -19.4375 C 4.914062 -20.53125 6.796875 -21.078125 9.171875 -21.078125 C 10.804688 -21.078125 12.222656 -20.796875 13.421875 -20.234375 C 14.628906 -19.671875 15.5625 -18.882812 16.21875 -17.875 C 16.875 -16.863281 17.203125 -15.65625 17.203125 -14.25 L 12.6875 -14.25 C 12.6875 -15.175781 12.378906 -15.90625 11.765625 -16.4375 C 11.160156 -16.96875 10.316406 -17.234375 9.234375 -17.234375 C 8.253906 -17.234375 7.476562 -17.039062 6.90625 -16.65625 C 6.332031 -16.28125 6.046875 -15.742188 6.046875 -15.046875 C 6.046875 -14.421875 6.359375 -13.890625 6.984375 -13.453125 C 7.617188 -13.023438 8.722656 -12.625 10.296875 -12.25 C 12.878906 -11.632812 14.738281 -10.816406 15.875 -9.796875 C 17.019531 -8.773438 17.59375 -7.445312 17.59375 -5.8125 C 17.59375 -3.863281 16.890625 -2.335938 15.484375 -1.234375 C 14.078125 -0.140625 12.144531 0.40625 9.6875 0.40625 Z M 9.6875 0.40625 "/></g></g></g><g fill="#1c3d86" fill-opacity="1"><g transform="translate(235.689938, 274.715216)"><g><path d="M 2.484375 0 L 2.484375 -20.65625 L 16.0625 -20.65625 L 16.0625 -16.703125 L 7.140625 -16.703125 L 7.140625 -12.421875 L 15.265625 -12.421875 L 15.265625 -8.5 L 7.140625 -8.5 L 7.140625 -3.984375 L 16.375 -3.984375 L 16.375 0 Z M 2.484375 0 "/></g></g></g><g fill="#1c3d86" fill-opacity="1"><g transform="translate(253.572046, 274.715216)"><g><path d="M 0.265625 0 L 8.46875 -20.65625 L 13.078125 -20.65625 L 21.28125 0 L 16.265625 0 L 14.875 -3.578125 L 6.671875 -3.578125 L 5.28125 0 Z M 7.875 -7.265625 L 13.6875 -7.265625 L 10.765625 -14.8125 Z M 7.875 -7.265625 "/></g></g></g><g fill="#1c3d86" fill-opacity="1"><g transform="translate(275.113201, 274.715216)"><g><path d="M 2.484375 0 L 2.484375 -20.65625 L 11.296875 -20.65625 C 12.878906 -20.65625 14.25 -20.367188 15.40625 -19.796875 C 16.570312 -19.234375 17.46875 -18.421875 18.09375 -17.359375 C 18.71875 -16.296875 19.03125 -15.023438 19.03125 -13.546875 C 19.03125 -12.035156 18.6875 -10.734375 18 -9.640625 C 17.3125 -8.546875 16.347656 -7.722656 15.109375 -7.171875 L 19.390625 0 L 13.96875 0 L 10.265625 -6.4375 L 7.171875 -6.4375 L 7.171875 0 Z M 7.109375 -10.390625 L 10.6875 -10.390625 C 11.84375 -10.390625 12.726562 -10.660156 13.34375 -11.203125 C 13.96875 -11.742188 14.28125 -12.515625 14.28125 -13.515625 C 14.28125 -14.523438 13.96875 -15.296875 13.34375 -15.828125 C 12.726562 -16.367188 11.84375 -16.640625 10.6875 -16.640625 L 7.109375 -16.640625 Z M 7.109375 -10.390625 "/></g></g></g><g fill="#1c3d86" fill-opacity="1"><g transform="translate(295.887118, 274.715216)"><g><path d="M 11.953125 0.40625 C 9.867188 0.40625 8.019531 -0.046875 6.40625 -0.953125 C 4.789062 -1.867188 3.53125 -3.132812 2.625 -4.75 C 1.71875 -6.363281 1.265625 -8.222656 1.265625 -10.328125 C 1.265625 -12.429688 1.71875 -14.289062 2.625 -15.90625 C 3.53125 -17.519531 4.785156 -18.785156 6.390625 -19.703125 C 7.992188 -20.617188 9.835938 -21.078125 11.921875 -21.078125 C 13.671875 -21.078125 15.273438 -20.738281 16.734375 -20.0625 C 18.191406 -19.394531 19.414062 -18.453125 20.40625 -17.234375 C 21.40625 -16.015625 22.097656 -14.578125 22.484375 -12.921875 L 17.65625 -12.921875 C 17.257812 -14.066406 16.554688 -14.96875 15.546875 -15.625 C 14.546875 -16.289062 13.390625 -16.625 12.078125 -16.625 C 10.910156 -16.625 9.867188 -16.359375 8.953125 -15.828125 C 8.035156 -15.296875 7.320312 -14.554688 6.8125 -13.609375 C 6.300781 -12.660156 6.046875 -11.566406 6.046875 -10.328125 C 6.046875 -9.085938 6.300781 -7.992188 6.8125 -7.046875 C 7.320312 -6.109375 8.03125 -5.375 8.9375 -4.84375 C 9.84375 -4.3125 10.878906 -4.046875 12.046875 -4.046875 C 13.398438 -4.046875 14.585938 -4.394531 15.609375 -5.09375 C 16.640625 -5.789062 17.367188 -6.726562 17.796875 -7.90625 L 22.640625 -7.90625 C 22.304688 -6.238281 21.632812 -4.78125 20.625 -3.53125 C 19.625 -2.28125 18.378906 -1.3125 16.890625 -0.625 C 15.410156 0.0625 13.765625 0.40625 11.953125 0.40625 Z M 11.953125 0.40625 "/></g></g></g><g fill="#1c3d86" fill-opacity="1"><g transform="translate(319.700411, 274.715216)"><g><path d="M 15.265625 0 L 15.265625 -8.328125 L 7.171875 -8.328125 L 7.171875 0 L 2.484375 0 L 2.484375 -20.65625 L 7.171875 -20.65625 L 7.171875 -12.71875 L 15.265625 -12.71875 L 15.265625 -20.65625 L 19.953125 -20.65625 L 19.953125 0 Z M 15.265625 0 "/></g></g></g></svg>