<svg xmlns="http://www.w3.org/2000/svg" xmlns:xlink="http://www.w3.org/1999/xlink" width="1080" zoomAndPan="magnify" viewBox="0 0 810 809.999993" height="1080" preserveAspectRatio="xMidYMid meet" version="1.0"><defs><clipPath id="b735d11924"><path d="M 82 102 L 729 102 L 729 717.472656 L 82 717.472656 Z M 82 102 " clip-rule="nonzero"/></clipPath><clipPath id="2c63ed8374"><path d="M 81 100.222656 L 728 100.222656 L 728 716 L 81 716 Z M 81 100.222656 " clip-rule="nonzero"/></clipPath></defs><path stroke-linecap="round" transform="matrix(33.749998, 0, 0, 33.749998, 84.374999, 101.250015)" fill="none" stroke-linejoin="round" d="M 10.213542 0.441319 L 12.530209 5.096643 C 12.643751 5.330671 12.867362 5.494213 13.127431 5.53368 L 18.312732 6.28287 C 18.523149 6.311458 18.713311 6.421875 18.840742 6.589352 C 18.968172 6.756829 19.022455 6.967593 18.991436 7.174653 C 18.965394 7.344907 18.88264 7.501736 18.756251 7.620602 L 15.000695 11.259259 C 14.81088 11.438542 14.725811 11.700232 14.774422 11.954861 L 15.679399 17.082871 C 15.744908 17.50544 15.455209 17.901968 15.027779 17.974769 C 14.851621 18.001968 14.671181 17.973843 14.512038 17.894445 L 9.887732 15.477547 C 9.656713 15.352199 9.376737 15.352199 9.145718 15.477547 L 4.494329 17.912269 C 4.104051 18.109607 3.625347 17.962963 3.417361 17.582292 C 3.336343 17.42882 3.307755 17.253704 3.335996 17.082871 L 4.240857 11.954861 C 4.284722 11.700579 4.200347 11.441088 4.014699 11.259259 L 0.23206 7.620602 C -0.0773148 7.311458 -0.0773148 6.814815 0.23206 6.505787 C 0.358218 6.390625 0.515162 6.313194 0.684491 6.28287 L 5.869792 5.53368 C 6.128704 5.491319 6.351042 5.328704 6.467014 5.096643 L 8.783681 0.441319 C 8.875232 0.252546 9.040278 0.108217 9.24132 0.0410875 C 9.442362 -0.0260421 9.662385 -0.0104171 9.851505 0.084606 C 10.007639 0.162615 10.134376 0.2875 10.213542 0.441319 Z M 10.213542 0.441319 " stroke="#200e32" stroke-width="1.5" stroke-opacity="1" stroke-miterlimit="4"/><g clip-path="url(#b735d11924)"><path fill="#200e32" d="M 405.839844 102.355469 L 505.671875 304.734375 L 729 337.191406 L 567.355469 494.828125 L 605.632812 717.25 L 405.839844 612.246094 L 205.917969 717.25 L 244.066406 494.828125 L 82.550781 337.191406 L 305.878906 304.734375 Z M 405.839844 102.355469 " fill-opacity="1" fill-rule="nonzero"/></g><g clip-path="url(#2c63ed8374)"><path fill="#200e32" d="M 404.289062 100.414062 L 504.25 302.792969 L 727.578125 335.25 L 565.933594 492.886719 L 604.082031 715.308594 L 404.289062 610.304688 L 204.496094 715.308594 L 242.644531 492.886719 L 81 335.25 L 304.328125 302.792969 Z M 404.289062 100.414062 " fill-opacity="1" fill-rule="nonzero"/><path fill="#200e32" d="M 404.289062 100.414062 L 504.25 302.792969 L 727.578125 335.25 L 565.933594 492.886719 L 604.082031 715.308594 L 404.289062 610.304688 L 204.496094 715.308594 L 242.644531 492.886719 L 81 335.25 L 304.328125 302.792969 Z M 404.289062 100.414062 " fill-opacity="1" fill-rule="nonzero"/><path fill="#200e32" d="M 404.289062 100.414062 L 504.25 302.792969 L 727.578125 335.25 L 565.933594 492.886719 L 604.082031 715.308594 L 404.289062 610.304688 L 204.496094 715.308594 L 242.644531 492.886719 L 81 335.25 L 304.328125 302.792969 Z M 404.289062 100.414062 " fill-opacity="1" fill-rule="nonzero"/></g></svg>