<svg xmlns="http://www.w3.org/2000/svg" xmlns:xlink="http://www.w3.org/1999/xlink" width="1080" zoomAndPan="magnify" viewBox="0 0 810 809.999993" height="1080" preserveAspectRatio="xMidYMid meet" version="1.0"><defs><clipPath id="dd709656c8"><path d="M 49.175781 152.820312 L 304.566406 152.820312 L 304.566406 413.84375 L 49.175781 413.84375 Z M 49.175781 152.820312 " clip-rule="nonzero"/></clipPath><clipPath id="b2970a132d"><path d="M 410 55 L 773 55 L 773 414 L 410 414 Z M 410 55 " clip-rule="nonzero"/></clipPath><clipPath id="f5a627bd19"><path d="M 542.398438 55.742188 L 772.851562 194.457031 L 640.800781 413.847656 L 410.34375 275.132812 Z M 542.398438 55.742188 " clip-rule="nonzero"/></clipPath><clipPath id="6494884515"><path d="M 39.035156 486 L 304.566406 486 L 304.566406 754.867188 L 39.035156 754.867188 Z M 39.035156 486 " clip-rule="nonzero"/></clipPath><clipPath id="395bb6018e"><path d="M 386.015625 486 L 643.527344 486 L 643.527344 754.867188 L 386.015625 754.867188 Z M 386.015625 486 " clip-rule="nonzero"/></clipPath></defs><path fill="#000000" d="M 303.75 135 L 33.75 135 C 33.199219 135 32.644531 135.027344 32.097656 135.082031 C 31.546875 135.136719 31 135.214844 30.457031 135.324219 C 29.914062 135.433594 29.378906 135.566406 28.851562 135.726562 C 28.324219 135.886719 27.804688 136.074219 27.292969 136.285156 C 26.78125 136.496094 26.28125 136.730469 25.796875 136.992188 C 25.308594 137.253906 24.835938 137.535156 24.375 137.84375 C 23.914062 138.152344 23.472656 138.480469 23.042969 138.832031 C 22.617188 139.179688 22.207031 139.550781 21.816406 139.941406 C 21.425781 140.332031 21.054688 140.742188 20.707031 141.167969 C 20.355469 141.597656 20.027344 142.039062 19.71875 142.5 C 19.410156 142.960938 19.128906 143.433594 18.867188 143.921875 C 18.605469 144.40625 18.371094 144.90625 18.160156 145.417969 C 17.949219 145.929688 17.761719 146.449219 17.601562 146.976562 C 17.441406 147.503906 17.308594 148.039062 17.199219 148.582031 C 17.089844 149.125 17.011719 149.671875 16.957031 150.222656 C 16.902344 150.769531 16.875 151.324219 16.875 151.875 L 16.875 421.875 C 16.875 422.425781 16.902344 422.980469 16.957031 423.527344 C 17.011719 424.078125 17.089844 424.625 17.199219 425.167969 C 17.308594 425.710938 17.441406 426.246094 17.601562 426.773438 C 17.761719 427.300781 17.949219 427.820312 18.160156 428.332031 C 18.371094 428.84375 18.605469 429.34375 18.867188 429.828125 C 19.128906 430.316406 19.410156 430.789062 19.71875 431.25 C 20.027344 431.710938 20.355469 432.152344 20.707031 432.582031 C 21.054688 433.007812 21.425781 433.417969 21.816406 433.808594 C 22.207031 434.199219 22.617188 434.570312 23.042969 434.917969 C 23.472656 435.269531 23.914062 435.597656 24.375 435.90625 C 24.835938 436.214844 25.308594 436.496094 25.796875 436.757812 C 26.28125 437.019531 26.78125 437.253906 27.292969 437.464844 C 27.804688 437.675781 28.324219 437.863281 28.851562 438.023438 C 29.378906 438.183594 29.914062 438.316406 30.457031 438.425781 C 31 438.535156 31.546875 438.613281 32.097656 438.667969 C 32.644531 438.722656 33.199219 438.75 33.75 438.75 L 303.75 438.75 C 304.300781 438.75 304.855469 438.722656 305.402344 438.667969 C 305.953125 438.613281 306.5 438.535156 307.042969 438.425781 C 307.585938 438.316406 308.121094 438.183594 308.648438 438.023438 C 309.175781 437.863281 309.695312 437.675781 310.207031 437.464844 C 310.71875 437.253906 311.21875 437.019531 311.703125 436.757812 C 312.191406 436.496094 312.664062 436.214844 313.125 435.90625 C 313.585938 435.597656 314.027344 435.269531 314.457031 434.917969 C 314.882812 434.570312 315.292969 434.199219 315.683594 433.808594 C 316.074219 433.417969 316.445312 433.007812 316.792969 432.582031 C 317.144531 432.152344 317.472656 431.710938 317.78125 431.25 C 318.089844 430.789062 318.371094 430.316406 318.632812 429.828125 C 318.894531 429.34375 319.128906 428.84375 319.339844 428.332031 C 319.550781 427.820312 319.738281 427.300781 319.898438 426.773438 C 320.058594 426.246094 320.191406 425.710938 320.300781 425.167969 C 320.410156 424.625 320.488281 424.078125 320.542969 423.527344 C 320.597656 422.980469 320.625 422.425781 320.625 421.875 L 320.625 151.875 C 320.625 151.324219 320.597656 150.769531 320.542969 150.222656 C 320.488281 149.671875 320.410156 149.125 320.300781 148.582031 C 320.191406 148.039062 320.058594 147.503906 319.898438 146.976562 C 319.738281 146.449219 319.550781 145.929688 319.339844 145.417969 C 319.128906 144.90625 318.894531 144.40625 318.632812 143.921875 C 318.371094 143.433594 318.089844 142.960938 317.78125 142.5 C 317.472656 142.039062 317.144531 141.597656 316.792969 141.167969 C 316.445312 140.742188 316.074219 140.332031 315.683594 139.941406 C 315.292969 139.550781 314.882812 139.179688 314.457031 138.832031 C 314.027344 138.480469 313.585938 138.152344 313.125 137.84375 C 312.664062 137.535156 312.191406 137.253906 311.703125 136.992188 C 311.21875 136.730469 310.71875 136.496094 310.207031 136.285156 C 309.695312 136.074219 309.175781 135.886719 308.648438 135.726562 C 308.121094 135.566406 307.585938 135.433594 307.042969 135.324219 C 306.5 135.214844 305.953125 135.136719 305.402344 135.082031 C 304.855469 135.027344 304.300781 135 303.75 135 Z M 286.875 405 L 50.625 405 L 50.625 168.75 L 286.875 168.75 Z M 303.75 472.5 L 33.75 472.5 C 33.199219 472.5 32.644531 472.527344 32.097656 472.582031 C 31.546875 472.636719 31 472.714844 30.457031 472.824219 C 29.914062 472.933594 29.378906 473.066406 28.851562 473.226562 C 28.324219 473.386719 27.804688 473.574219 27.292969 473.785156 C 26.78125 473.996094 26.28125 474.230469 25.796875 474.492188 C 25.308594 474.753906 24.835938 475.035156 24.375 475.34375 C 23.914062 475.652344 23.472656 475.980469 23.042969 476.332031 C 22.617188 476.679688 22.207031 477.050781 21.816406 477.441406 C 21.425781 477.832031 21.054688 478.242188 20.707031 478.667969 C 20.355469 479.097656 20.027344 479.539062 19.71875 480 C 19.410156 480.460938 19.128906 480.933594 18.867188 481.421875 C 18.605469 481.90625 18.371094 482.40625 18.160156 482.917969 C 17.949219 483.429688 17.761719 483.949219 17.601562 484.476562 C 17.441406 485.003906 17.308594 485.539062 17.199219 486.082031 C 17.089844 486.625 17.011719 487.171875 16.957031 487.722656 C 16.902344 488.269531 16.875 488.824219 16.875 489.375 L 16.875 759.375 C 16.875 759.925781 16.902344 760.480469 16.957031 761.027344 C 17.011719 761.578125 17.089844 762.125 17.199219 762.667969 C 17.308594 763.210938 17.441406 763.746094 17.601562 764.273438 C 17.761719 764.800781 17.949219 765.320312 18.160156 765.832031 C 18.371094 766.34375 18.605469 766.84375 18.867188 767.328125 C 19.128906 767.816406 19.410156 768.289062 19.71875 768.75 C 20.027344 769.210938 20.355469 769.652344 20.707031 770.082031 C 21.054688 770.507812 21.425781 770.917969 21.816406 771.308594 C 22.207031 771.699219 22.617188 772.070312 23.042969 772.417969 C 23.472656 772.769531 23.914062 773.097656 24.375 773.40625 C 24.835938 773.714844 25.308594 773.996094 25.796875 774.257812 C 26.28125 774.519531 26.78125 774.753906 27.292969 774.964844 C 27.804688 775.175781 28.324219 775.363281 28.851562 775.523438 C 29.378906 775.683594 29.914062 775.816406 30.457031 775.925781 C 31 776.035156 31.546875 776.113281 32.097656 776.167969 C 32.644531 776.222656 33.199219 776.25 33.75 776.25 L 303.75 776.25 C 304.300781 776.25 304.855469 776.222656 305.402344 776.167969 C 305.953125 776.113281 306.5 776.035156 307.042969 775.925781 C 307.585938 775.816406 308.121094 775.683594 308.648438 775.523438 C 309.175781 775.363281 309.695312 775.175781 310.207031 774.964844 C 310.71875 774.753906 311.21875 774.519531 311.703125 774.257812 C 312.191406 773.996094 312.664062 773.714844 313.125 773.40625 C 313.585938 773.097656 314.027344 772.769531 314.457031 772.417969 C 314.882812 772.070312 315.292969 771.699219 315.683594 771.308594 C 316.074219 770.917969 316.445312 770.507812 316.792969 770.082031 C 317.144531 769.652344 317.472656 769.210938 317.78125 768.75 C 318.089844 768.289062 318.371094 767.816406 318.632812 767.328125 C 318.894531 766.84375 319.128906 766.34375 319.339844 765.832031 C 319.550781 765.320312 319.738281 764.800781 319.898438 764.273438 C 320.058594 763.746094 320.191406 763.210938 320.300781 762.667969 C 320.410156 762.125 320.488281 761.578125 320.542969 761.027344 C 320.597656 760.480469 320.625 759.925781 320.625 759.375 L 320.625 489.375 C 320.625 488.824219 320.597656 488.269531 320.542969 487.722656 C 320.488281 487.171875 320.410156 486.625 320.300781 486.082031 C 320.191406 485.539062 320.058594 485.003906 319.898438 484.476562 C 319.738281 483.949219 319.550781 483.429688 319.339844 482.917969 C 319.128906 482.40625 318.894531 481.90625 318.632812 481.421875 C 318.371094 480.933594 318.089844 480.460938 317.78125 480 C 317.472656 479.539062 317.144531 479.097656 316.792969 478.667969 C 316.445312 478.242188 316.074219 477.832031 315.683594 477.441406 C 315.292969 477.050781 314.882812 476.679688 314.457031 476.332031 C 314.027344 475.980469 313.585938 475.652344 313.125 475.34375 C 312.664062 475.035156 312.191406 474.753906 311.703125 474.492188 C 311.21875 474.230469 310.71875 473.996094 310.207031 473.785156 C 309.695312 473.574219 309.175781 473.386719 308.648438 473.226562 C 308.121094 473.066406 307.585938 472.933594 307.042969 472.824219 C 306.5 472.714844 305.953125 472.636719 305.402344 472.582031 C 304.855469 472.527344 304.300781 472.5 303.75 472.5 Z M 286.875 742.5 L 50.625 742.5 L 50.625 506.25 L 286.875 506.25 Z M 641.25 472.5 L 371.25 472.5 C 370.699219 472.5 370.144531 472.527344 369.597656 472.582031 C 369.046875 472.636719 368.5 472.714844 367.957031 472.824219 C 367.414062 472.933594 366.878906 473.066406 366.351562 473.226562 C 365.824219 473.386719 365.304688 473.574219 364.792969 473.785156 C 364.28125 473.996094 363.78125 474.230469 363.296875 474.492188 C 362.808594 474.753906 362.335938 475.035156 361.875 475.34375 C 361.414062 475.652344 360.972656 475.980469 360.542969 476.332031 C 360.117188 476.679688 359.707031 477.050781 359.316406 477.441406 C 358.925781 477.832031 358.554688 478.242188 358.207031 478.667969 C 357.855469 479.097656 357.527344 479.539062 357.21875 480 C 356.910156 480.460938 356.628906 480.933594 356.367188 481.421875 C 356.105469 481.90625 355.871094 482.40625 355.660156 482.917969 C 355.449219 483.429688 355.261719 483.949219 355.101562 484.476562 C 354.941406 485.003906 354.808594 485.539062 354.699219 486.082031 C 354.589844 486.625 354.511719 487.171875 354.457031 487.722656 C 354.402344 488.269531 354.375 488.824219 354.375 489.375 L 354.375 759.375 C 354.375 759.925781 354.402344 760.480469 354.457031 761.027344 C 354.511719 761.578125 354.589844 762.125 354.699219 762.667969 C 354.808594 763.210938 354.941406 763.746094 355.101562 764.273438 C 355.261719 764.800781 355.449219 765.320312 355.660156 765.832031 C 355.871094 766.34375 356.105469 766.84375 356.367188 767.328125 C 356.628906 767.816406 356.910156 768.289062 357.21875 768.75 C 357.527344 769.210938 357.855469 769.652344 358.207031 770.082031 C 358.554688 770.507812 358.925781 770.917969 359.316406 771.308594 C 359.707031 771.699219 360.117188 772.070312 360.542969 772.417969 C 360.972656 772.769531 361.414062 773.097656 361.875 773.40625 C 362.335938 773.714844 362.808594 773.996094 363.296875 774.257812 C 363.78125 774.519531 364.28125 774.753906 364.792969 774.964844 C 365.304688 775.175781 365.824219 775.363281 366.351562 775.523438 C 366.878906 775.683594 367.414062 775.816406 367.957031 775.925781 C 368.5 776.035156 369.046875 776.113281 369.597656 776.167969 C 370.144531 776.222656 370.699219 776.25 371.25 776.25 L 641.25 776.25 C 641.800781 776.25 642.355469 776.222656 642.902344 776.167969 C 643.453125 776.113281 644 776.035156 644.542969 775.925781 C 645.085938 775.816406 645.621094 775.683594 646.148438 775.523438 C 646.675781 775.363281 647.195312 775.175781 647.707031 774.964844 C 648.21875 774.753906 648.71875 774.519531 649.203125 774.257812 C 649.691406 773.996094 650.164062 773.714844 650.625 773.40625 C 651.085938 773.097656 651.527344 772.769531 651.957031 772.417969 C 652.382812 772.070312 652.792969 771.699219 653.183594 771.308594 C 653.574219 770.917969 653.945312 770.507812 654.292969 770.082031 C 654.644531 769.652344 654.972656 769.210938 655.28125 768.75 C 655.589844 768.289062 655.871094 767.816406 656.132812 767.328125 C 656.394531 766.84375 656.628906 766.34375 656.839844 765.832031 C 657.050781 765.320312 657.238281 764.800781 657.398438 764.273438 C 657.558594 763.746094 657.691406 763.210938 657.800781 762.667969 C 657.910156 762.125 657.988281 761.578125 658.042969 761.027344 C 658.097656 760.480469 658.125 759.925781 658.125 759.375 L 658.125 489.375 C 658.125 488.824219 658.097656 488.269531 658.042969 487.722656 C 657.988281 487.171875 657.910156 486.625 657.800781 486.082031 C 657.691406 485.539062 657.558594 485.003906 657.398438 484.476562 C 657.238281 483.949219 657.050781 483.429688 656.839844 482.917969 C 656.628906 482.40625 656.394531 481.90625 656.132812 481.421875 C 655.871094 480.933594 655.589844 480.460938 655.28125 480 C 654.972656 479.539062 654.644531 479.097656 654.292969 478.667969 C 653.945312 478.242188 653.574219 477.832031 653.183594 477.441406 C 652.792969 477.050781 652.382812 476.679688 651.957031 476.332031 C 651.527344 475.980469 651.085938 475.652344 650.625 475.34375 C 650.164062 475.035156 649.691406 474.753906 649.203125 474.492188 C 648.71875 474.230469 648.21875 473.996094 647.707031 473.785156 C 647.195312 473.574219 646.675781 473.386719 646.148438 473.226562 C 645.621094 473.066406 645.085938 472.933594 644.542969 472.824219 C 644 472.714844 643.453125 472.636719 642.902344 472.582031 C 642.355469 472.527344 641.800781 472.5 641.25 472.5 Z M 624.375 742.5 L 388.125 742.5 L 388.125 506.25 L 624.375 506.25 Z M 784.6875 172.292969 L 550.800781 37.292969 C 550.320312 37.015625 549.828125 36.761719 549.320312 36.53125 C 548.816406 36.300781 548.300781 36.097656 547.773438 35.917969 C 547.25 35.742188 546.714844 35.589844 546.175781 35.460938 C 545.636719 35.335938 545.089844 35.238281 544.539062 35.164062 C 543.988281 35.09375 543.4375 35.046875 542.882812 35.027344 C 542.328125 35.011719 541.773438 35.019531 541.21875 35.058594 C 540.664062 35.09375 540.113281 35.160156 539.566406 35.25 C 539.019531 35.339844 538.476562 35.460938 537.941406 35.605469 C 537.40625 35.75 536.878906 35.917969 536.359375 36.117188 C 535.839844 36.3125 535.332031 36.535156 534.835938 36.78125 C 534.335938 37.027344 533.851562 37.300781 533.382812 37.59375 C 532.914062 37.890625 532.457031 38.207031 532.019531 38.546875 C 531.578125 38.886719 531.15625 39.246094 530.753906 39.625 C 530.351562 40.007812 529.96875 40.40625 529.601562 40.828125 C 529.238281 41.246094 528.894531 41.683594 528.574219 42.136719 C 528.253906 42.585938 527.957031 43.054688 527.679688 43.539062 L 392.679688 277.425781 C 392.402344 277.90625 392.148438 278.398438 391.917969 278.902344 C 391.691406 279.410156 391.484375 279.925781 391.308594 280.449219 C 391.128906 280.976562 390.976562 281.507812 390.847656 282.050781 C 390.722656 282.589844 390.625 283.136719 390.550781 283.6875 C 390.480469 284.234375 390.433594 284.789062 390.417969 285.34375 C 390.398438 285.898438 390.410156 286.453125 390.445312 287.007812 C 390.480469 287.558594 390.546875 288.109375 390.636719 288.660156 C 390.730469 289.207031 390.847656 289.746094 390.992188 290.285156 C 391.136719 290.820312 391.308594 291.347656 391.503906 291.867188 C 391.699219 292.386719 391.921875 292.894531 392.167969 293.390625 C 392.417969 293.886719 392.6875 294.371094 392.980469 294.84375 C 393.277344 295.3125 393.59375 295.765625 393.933594 296.207031 C 394.273438 296.644531 394.632812 297.066406 395.015625 297.46875 C 395.394531 297.875 395.796875 298.257812 396.214844 298.621094 C 396.632812 298.984375 397.070312 299.328125 397.523438 299.648438 C 397.976562 299.972656 398.441406 300.269531 398.925781 300.542969 L 632.8125 435.542969 C 633.292969 435.820312 633.785156 436.074219 634.289062 436.304688 C 634.796875 436.535156 635.3125 436.738281 635.835938 436.917969 C 636.363281 437.097656 636.894531 437.25 637.4375 437.375 C 637.976562 437.5 638.523438 437.601562 639.074219 437.671875 C 639.625 437.746094 640.175781 437.789062 640.730469 437.808594 C 641.285156 437.824219 641.839844 437.816406 642.394531 437.78125 C 642.949219 437.742188 643.5 437.679688 644.046875 437.585938 C 644.59375 437.496094 645.136719 437.378906 645.671875 437.234375 C 646.207031 437.089844 646.734375 436.917969 647.253906 436.722656 C 647.773438 436.523438 648.28125 436.300781 648.777344 436.054688 C 649.273438 435.808594 649.757812 435.539062 650.230469 435.242188 C 650.699219 434.949219 651.15625 434.632812 651.59375 434.292969 C 652.03125 433.953125 652.453125 433.589844 652.859375 433.210938 C 653.261719 432.828125 653.644531 432.429688 654.007812 432.011719 C 654.375 431.589844 654.714844 431.15625 655.039062 430.703125 C 655.359375 430.25 655.65625 429.78125 655.929688 429.300781 L 790.929688 195.414062 C 791.210938 194.933594 791.464844 194.4375 791.691406 193.933594 C 791.921875 193.429688 792.125 192.914062 792.304688 192.386719 C 792.484375 191.863281 792.636719 191.328125 792.761719 190.789062 C 792.890625 190.246094 792.988281 189.703125 793.058594 189.152344 C 793.132812 188.601562 793.179688 188.050781 793.195312 187.492188 C 793.214844 186.9375 793.203125 186.386719 793.167969 185.832031 C 793.128906 185.277344 793.066406 184.726562 792.976562 184.179688 C 792.882812 183.632812 792.765625 183.089844 792.621094 182.554688 C 792.476562 182.019531 792.304688 181.492188 792.109375 180.972656 C 791.910156 180.453125 791.691406 179.945312 791.441406 179.445312 C 791.195312 178.949219 790.925781 178.464844 790.628906 177.996094 C 790.335938 177.523438 790.019531 177.070312 789.679688 176.632812 C 789.339844 176.191406 788.980469 175.769531 788.597656 175.367188 C 788.21875 174.964844 787.816406 174.578125 787.398438 174.214844 C 786.980469 173.851562 786.542969 173.507812 786.089844 173.1875 C 785.636719 172.867188 785.167969 172.570312 784.6875 172.292969 Z M 635.007812 397.574219 L 430.480469 279.449219 L 548.605469 74.925781 L 753.132812 193.050781 Z M 635.007812 397.574219 " fill-opacity="1" fill-rule="nonzero"/><g clip-path="url(#dd709656c8)"><path fill="#000000" d="M 49.175781 152.820312 L 304.566406 152.820312 L 304.566406 414.195312 L 49.175781 414.195312 Z M 49.175781 152.820312 " fill-opacity="1" fill-rule="nonzero"/></g><g clip-path="url(#b2970a132d)"><g clip-path="url(#f5a627bd19)"><path fill="#000000" d="M 542.398438 55.742188 L 772.929688 194.503906 L 640.875 413.890625 L 410.34375 275.132812 Z M 542.398438 55.742188 " fill-opacity="1" fill-rule="nonzero"/></g></g><g clip-path="url(#6494884515)"><path fill="#000000" d="M 39.035156 486 L 304.566406 486 L 304.566406 754.644531 L 39.035156 754.644531 Z M 39.035156 486 " fill-opacity="1" fill-rule="nonzero"/></g><g clip-path="url(#395bb6018e)"><path fill="#000000" d="M 386.015625 486 L 643.527344 486 L 643.527344 754.574219 L 386.015625 754.574219 Z M 386.015625 486 " fill-opacity="1" fill-rule="nonzero"/></g></svg>